<svg xmlns="http://www.w3.org/2000/svg" viewBox="0 0 162 132" fill="none" stroke="currentColor" stroke-width="7" stroke-linecap="round" color="#000">
  <!-- signal mark: two sources, one connection -->
  <line x1="41.7" y1="38.0" x2="54.0" y2="46.6"/><line x1="37.2" y1="40.9" x2="39.8" y2="55.7"/><line x1="32.0" y1="39.7" x2="23.4" y2="52.0"/><line x1="29.1" y1="35.2" x2="14.3" y2="37.8"/><line x1="30.3" y1="30.0" x2="18.0" y2="21.4"/><line x1="34.8" y1="27.1" x2="32.2" y2="12.3"/><line x1="40.0" y1="28.3" x2="48.6" y2="16.0"/><line x1="42.9" y1="32.8" x2="57.7" y2="30.2"/><line x1="131.0" y1="100.5" x2="143.3" y2="109.1"/><line x1="126.5" y1="103.4" x2="129.1" y2="118.2"/><line x1="121.3" y1="102.2" x2="112.7" y2="114.5"/><line x1="118.4" y1="97.7" x2="103.6" y2="100.3"/><line x1="119.6" y1="92.5" x2="107.3" y2="83.9"/><line x1="124.1" y1="89.6" x2="121.5" y2="74.8"/><line x1="129.3" y1="90.8" x2="137.9" y2="78.5"/><line x1="132.2" y1="95.3" x2="147.0" y2="92.7"/><line x1="57.3" y1="48.9" x2="64.7" y2="54.1"/><line x1="77.0" y1="62.7" x2="84.3" y2="67.8"/><line x1="96.6" y1="76.4" x2="104.0" y2="81.6"/>
</svg>
